HIERARCHY
ROOT root
{
	OFFSET 0.000000 0.000000 0.000000
	CHANNELS 6 Xposition Yposition Zposition Zrotation Yrotation Xrotation
	JOINT lhip
	{
		OFFSET 0.058581 -0.082280 -0.017664
		CHANNELS 3 Zrotation Yrotation Xrotation
		JOINT lknee
		{
			OFFSET 0.043451 -0.386469 0.008037
			CHANNELS 3 Zrotation Yrotation Xrotation
			JOINT lankle
			{
				OFFSET -0.014790 -0.426874 -0.037428
				CHANNELS 3 Zrotation Yrotation Xrotation
				JOINT ltoe
				{
					OFFSET 0.041054 -0.060286 0.122042
					CHANNELS 3 Zrotation Yrotation Xrotation
					End Site
					{
						OFFSET 0.000000 0.000000 0.000000
					}
				}
			}
		}
	}
	JOINT rhip
	{
		OFFSET -0.060310 -0.090513 -0.013543
		CHANNELS 3 Zrotation Yrotation Xrotation
		JOINT rknee
		{
			OFFSET -0.043257 -0.383688 -0.004843
			CHANNELS 3 Zrotation Yrotation Xrotation
			JOINT rankle
			{
				OFFSET 0.019056 -0.420046 -0.034562
				CHANNELS 3 Zrotation Yrotation Xrotation
				JOINT rtoe
				{
					OFFSET -0.034840 -0.062106 0.130323
					CHANNELS 3 Zrotation Yrotation Xrotation
					End Site
					{
						OFFSET 0.000000 0.000000 0.000000
					}
				}
			}
		}
	}
	JOINT lowerback
	{
		OFFSET 0.004439 0.124404 -0.038385
		CHANNELS 3 Zrotation Yrotation Xrotation
		JOINT upperback
		{
			OFFSET 0.004488 0.137956 0.026820
			CHANNELS 3 Zrotation Yrotation Xrotation
			JOINT chest
			{
				OFFSET -0.002265 0.056032 0.002855
				CHANNELS 3 Zrotation Yrotation Xrotation
				JOINT lowerneck
				{
					OFFSET -0.013390 0.211636 -0.033468
					CHANNELS 3 Zrotation Yrotation Xrotation
					JOINT upperneck
					{
						OFFSET 0.010113 0.088937 0.050410
						CHANNELS 3 Zrotation Yrotation Xrotation
						End Site
						{
							OFFSET 0.000000 0.000000 0.000000
						}
					}
				}
				JOINT lclavicle
				{
					OFFSET 0.071702 0.114000 -0.018898
					CHANNELS 3 Zrotation Yrotation Xrotation
					JOINT lshoulder
					{
						OFFSET 0.122921 0.045205 -0.019046
						CHANNELS 3 Zrotation Yrotation Xrotation
						JOINT lelbow
						{
							OFFSET 0.255332 -0.015649 -0.022946
							CHANNELS 3 Zrotation Yrotation Xrotation
							JOINT lwrist
							{
								OFFSET 0.265709 0.012698 -0.007375
								CHANNELS 3 Zrotation Yrotation Xrotation
								End Site
								{
									OFFSET 0.000000 0.000000 0.000000
								}
							}
						}
					}
				}
				JOINT rclavicle
				{
					OFFSET -0.082954 0.112472 -0.023707
					CHANNELS 3 Zrotation Yrotation Xrotation
					JOINT rshoulder
					{
						OFFSET -0.113228 0.046853 -0.008472
						CHANNELS 3 Zrotation Yrotation Xrotation
						JOINT relbow
						{
							OFFSET -0.260127 -0.014369 -0.031269
							CHANNELS 3 Zrotation Yrotation Xrotation
							JOINT rwrist
							{
								OFFSET -0.269108 0.006794 -0.006027
								CHANNELS 3 Zrotation Yrotation Xrotation
								End Site
								{
									OFFSET 0.000000 0.000000 0.000000
								}
							}
						}
					}
				}
			}
		}
	}
}
MOTION
Frames: 7
Frame Time: 0.033333
0.340198 0.646704 0.573016 -81.071060 3.158886 66.088628 27.666942 8.454690 -47.399567 -9.677891 0.533499 106.786546 -0.741424 7.465805 -33.462307 0.000000 -0.000000 0.000000 -25.470328 -8.303160 -46.262073 0.825573 4.701117 102.127862 4.422828 -6.181674 -26.918216 0.000000 -0.000000 0.000000 -1.949897 0.760305 53.803961 0.624090 -3.706360 -4.508174 0.314146 -0.804004 -1.060008 -4.840456 0.842007 -17.587927 4.885847 -7.185381 1.495395 -11.074449 -37.564418 -6.010292 -29.497551 -35.540401 -1.624748 25.473875 -59.070719 3.909355 2.298263 -6.666625 3.019082 12.079238 35.942224 -1.852867 34.563092 24.776560 -0.473687 -56.237418 59.388605 -24.346720 9.875588 3.239577 16.494629 
0.339682 0.647779 0.573459 -81.242625 2.960807 66.618247 28.445639 7.935181 -47.480260 -9.002494 1.556902 106.969750 -0.643642 6.938357 -33.974020 0.000000 -0.000000 0.000000 -26.514169 -7.595948 -46.600207 0.642354 3.435957 102.094404 4.651095 -5.679837 -26.888306 0.000000 -0.000000 0.000000 -1.940624 0.530016 52.920399 0.605257 -3.770093 -3.319898 0.097203 -0.882425 -1.870107 -4.310453 1.018904 -17.594471 4.713937 -6.974485 1.746713 -11.693715 -37.565450 -5.109375 -29.594354 -34.753554 -1.877259 29.171014 -59.658158 -2.201157 0.764413 -6.236008 5.322022 12.378437 36.205167 -1.891083 34.539727 25.423973 -0.196011 -55.852412 59.057941 -25.049186 12.019977 2.737994 17.366794 
0.339263 0.648421 0.573322 -81.343061 2.891275 66.771137 28.399540 8.049565 -47.606422 -9.115107 1.610952 107.158414 -0.618905 7.332675 -33.973095 0.000000 -0.000000 0.000000 -26.438073 -8.016965 -46.855481 1.226205 3.288807 102.204526 4.418584 -6.239982 -27.031384 0.000000 -0.000000 0.000000 -1.696909 0.405507 52.914936 0.785275 -3.804222 -2.611453 0.123211 -1.307199 -2.124656 -4.463173 0.701971 -18.338997 4.850078 -6.372114 1.688944 -11.529242 -37.723705 -4.971263 -27.821606 -33.945857 -3.188908 28.934726 -61.131284 -2.022620 2.503707 -6.371680 3.792270 11.595135 36.448142 -2.293045 34.596832 25.714345 0.036998 -56.753645 59.362385 -25.984178 12.706653 2.632629 17.152775 
0.337810 0.649745 0.573516 -81.593337 2.826024 67.116381 28.589324 8.371121 -47.636250 -8.932187 1.643883 107.181355 -0.664194 7.156526 -34.034790 0.000000 -0.000000 0.000000 -26.529312 -8.151817 -47.154024 1.227899 2.988436 102.278302 4.181371 -5.857756 -27.307029 0.000000 -0.000000 0.000000 -1.762716 0.231138 53.172947 0.887020 -3.727967 -3.131520 0.302345 -1.066563 -2.092303 -4.579089 0.512771 -18.050466 4.687926 -6.382139 1.229246 -11.210155 -37.362055 -5.109430 -28.901341 -33.929553 -2.769177 31.120729 -61.133686 -3.896255 3.761631 -6.257764 2.858505 11.818520 36.368753 -1.932873 34.187468 25.851102 -0.422915 -56.753020 60.082822 -26.207381 11.065808 3.179925 16.075948 
0.337101 0.650515 0.573286 -81.804304 2.670435 67.350060 28.592507 8.694099 -47.743034 -9.154211 1.653931 107.319477 -0.630712 7.053597 -33.812347 0.000000 -0.000000 0.000000 -26.376248 -8.163812 -47.591060 1.397458 3.122862 102.438854 4.223087 -6.152507 -27.229446 0.000000 -0.000000 0.000000 -1.787619 0.082604 53.265667 0.846846 -3.636130 -3.084832 0.318558 -1.118712 -2.121724 -4.734341 0.347799 -18.697150 4.649887 -6.097947 1.437148 -11.609361 -37.023972 -5.377627 -28.482034 -33.733249 -2.722729 31.471566 -61.811672 -4.852131 4.630247 -5.956597 2.729951 12.284255 36.353150 -2.026991 33.805309 26.220366 -0.179277 -57.187173 60.378490 -27.454118 10.191018 2.925819 16.310350 
0.336461 0.651076 0.573726 -81.757745 2.634013 67.307908 28.419478 8.721183 -47.632577 -9.002727 1.417671 107.259495 -0.709189 7.175027 -33.969350 0.000000 -0.000000 0.000000 -26.396100 -8.295763 -47.552344 1.560635 3.079625 102.547919 4.232667 -6.275972 -27.238036 0.000000 -0.000000 0.000000 -1.515378 -0.276987 53.854367 0.813938 -3.578396 -3.307616 0.209707 -1.026752 -2.125880 -4.811370 -0.031079 -18.877532 4.548037 -6.073806 1.335555 -11.770727 -36.620867 -5.341320 -28.355909 -34.201299 -3.325279 31.189470 -62.180134 -3.969772 3.316405 -6.126284 2.066489 12.077261 36.232584 -2.154320 33.994588 26.534568 -0.485648 -57.807447 60.771680 -27.975591 10.377042 3.350067 15.833028 
0.336049 0.651853 0.573105 -82.116958 2.295339 67.470333 28.456112 8.798434 -47.527091 -8.819764 1.511084 107.372938 -0.859164 6.920328 -33.762869 0.000000 -0.000000 0.000000 -26.562998 -8.273784 -48.105027 1.534049 3.101739 102.762104 4.089491 -5.844488 -27.236099 0.000000 -0.000000 0.000000 -1.438849 -0.082410 53.623499 0.743674 -3.474296 -2.617917 0.254850 -1.055716 -2.439774 -4.848787 -0.131641 -18.921447 4.527246 -6.379257 1.128116 -11.480566 -37.021066 -5.277241 -28.405514 -33.416786 -3.270695 33.827679 -62.498702 -7.357591 4.513371 -6.162321 2.247274 11.739797 36.707113 -2.184556 34.356577 26.455775 -0.525517 -59.882814 60.709253 -30.348657 10.195372 2.874518 15.850685 
